<mxfile host="app.diagrams.net" modified="2023-05-10T02:58:30.895Z" agent="Mozilla/5.0 (Macintosh; Intel Mac OS X 10_15_7) AppleWebKit/537.36 (KHTML, like Gecko) Chrome/112.0.0.0 Safari/537.36" etag="yKcMjyfrYOyhsSbrm6Ug" version="21.2.9" type="device">
  <diagram name="第 1 页" id="LyFe1Yn9w_Q7EmP0Lx8m">
    <mxGraphModel dx="1114" dy="621" grid="1" gridSize="10" guides="1" tooltips="1" connect="1" arrows="1" fold="1" page="1" pageScale="1" pageWidth="827" pageHeight="1169" math="0" shadow="0">
      <root>
        <mxCell id="0" />
        <mxCell id="1" parent="0" />
        <mxCell id="Kdeygh5ItrPJ2xVoY4D2-1" value="" style="ellipse;fillColor=strokeColor;html=1;" vertex="1" parent="1">
          <mxGeometry x="120" y="20" width="30" height="30" as="geometry" />
        </mxCell>
        <mxCell id="Kdeygh5ItrPJ2xVoY4D2-3" value="" style="endArrow=none;html=1;rounded=0;entryX=0.5;entryY=1;entryDx=0;entryDy=0;" edge="1" parent="1" target="Kdeygh5ItrPJ2xVoY4D2-1">
          <mxGeometry width="50" height="50" relative="1" as="geometry">
            <mxPoint x="135" y="140" as="sourcePoint" />
            <mxPoint x="160" y="140" as="targetPoint" />
          </mxGeometry>
        </mxCell>
        <mxCell id="Kdeygh5ItrPJ2xVoY4D2-4" value="登入" style="rounded=1;whiteSpace=wrap;html=1;" vertex="1" parent="1">
          <mxGeometry x="75" y="100" width="120" height="60" as="geometry" />
        </mxCell>
        <mxCell id="Kdeygh5ItrPJ2xVoY4D2-7" value="" style="endArrow=classic;html=1;rounded=0;" edge="1" parent="1">
          <mxGeometry width="50" height="50" relative="1" as="geometry">
            <mxPoint x="135" y="160" as="sourcePoint" />
            <mxPoint x="134.5" y="210" as="targetPoint" />
          </mxGeometry>
        </mxCell>
        <mxCell id="Kdeygh5ItrPJ2xVoY4D2-8" value="輸入帳號密碼" style="rounded=1;whiteSpace=wrap;html=1;" vertex="1" parent="1">
          <mxGeometry x="75" y="210" width="120" height="60" as="geometry" />
        </mxCell>
        <mxCell id="Kdeygh5ItrPJ2xVoY4D2-10" value="" style="endArrow=classic;html=1;rounded=0;" edge="1" parent="1">
          <mxGeometry width="50" height="50" relative="1" as="geometry">
            <mxPoint x="135" y="270" as="sourcePoint" />
            <mxPoint x="134.5" y="320" as="targetPoint" />
          </mxGeometry>
        </mxCell>
        <mxCell id="Kdeygh5ItrPJ2xVoY4D2-11" value="確認身份" style="rhombus;whiteSpace=wrap;html=1;" vertex="1" parent="1">
          <mxGeometry x="73" y="320" width="122.5" height="50" as="geometry" />
        </mxCell>
        <mxCell id="Kdeygh5ItrPJ2xVoY4D2-13" value="" style="endArrow=none;html=1;rounded=0;" edge="1" parent="1">
          <mxGeometry width="50" height="50" relative="1" as="geometry">
            <mxPoint x="240" y="200" as="sourcePoint" />
            <mxPoint x="240" y="130" as="targetPoint" />
          </mxGeometry>
        </mxCell>
        <mxCell id="Kdeygh5ItrPJ2xVoY4D2-14" value="" style="endArrow=classic;html=1;rounded=0;entryX=1;entryY=0.5;entryDx=0;entryDy=0;" edge="1" parent="1" target="Kdeygh5ItrPJ2xVoY4D2-4">
          <mxGeometry width="50" height="50" relative="1" as="geometry">
            <mxPoint x="240" y="130" as="sourcePoint" />
            <mxPoint x="310" y="80" as="targetPoint" />
          </mxGeometry>
        </mxCell>
        <mxCell id="Kdeygh5ItrPJ2xVoY4D2-15" value="&lt;span style=&quot;color: rgb(0, 0, 0); font-family: Helvetica; font-size: 12px; font-style: normal; font-variant-ligatures: normal; font-variant-caps: normal; font-weight: 400; letter-spacing: normal; orphans: 2; text-align: center; text-indent: 0px; text-transform: none; widows: 2; word-spacing: 0px; -webkit-text-stroke-width: 0px; background-color: rgb(251, 251, 251); text-decoration-thickness: initial; text-decoration-style: initial; text-decoration-color: initial; float: none; display: inline !important;&quot;&gt;登入失敗&lt;/span&gt;" style="text;whiteSpace=wrap;html=1;" vertex="1" parent="1">
          <mxGeometry x="210" y="200" width="60" height="30" as="geometry" />
        </mxCell>
        <mxCell id="Kdeygh5ItrPJ2xVoY4D2-16" value="" style="endArrow=none;html=1;rounded=0;entryX=0.5;entryY=1;entryDx=0;entryDy=0;" edge="1" parent="1">
          <mxGeometry width="50" height="50" relative="1" as="geometry">
            <mxPoint x="240" y="346" as="sourcePoint" />
            <mxPoint x="240" y="226" as="targetPoint" />
          </mxGeometry>
        </mxCell>
        <mxCell id="Kdeygh5ItrPJ2xVoY4D2-17" value="" style="endArrow=none;html=1;rounded=0;" edge="1" parent="1" source="Kdeygh5ItrPJ2xVoY4D2-11">
          <mxGeometry width="50" height="50" relative="1" as="geometry">
            <mxPoint x="195.5" y="395" as="sourcePoint" />
            <mxPoint x="240" y="345" as="targetPoint" />
          </mxGeometry>
        </mxCell>
        <mxCell id="Kdeygh5ItrPJ2xVoY4D2-18" value="登入成功" style="rounded=1;whiteSpace=wrap;html=1;" vertex="1" parent="1">
          <mxGeometry x="74.25" y="430" width="120" height="60" as="geometry" />
        </mxCell>
        <mxCell id="Kdeygh5ItrPJ2xVoY4D2-22" value="" style="endArrow=classic;html=1;rounded=0;" edge="1" parent="1">
          <mxGeometry width="50" height="50" relative="1" as="geometry">
            <mxPoint x="133.12" y="490" as="sourcePoint" />
            <mxPoint x="132.62" y="540" as="targetPoint" />
          </mxGeometry>
        </mxCell>
        <mxCell id="Kdeygh5ItrPJ2xVoY4D2-23" value="" style="ellipse;html=1;shape=endState;fillColor=strokeColor;" vertex="1" parent="1">
          <mxGeometry x="117.75" y="540" width="30" height="30" as="geometry" />
        </mxCell>
        <mxCell id="Kdeygh5ItrPJ2xVoY4D2-24" value="" style="ellipse;fillColor=strokeColor;html=1;" vertex="1" parent="1">
          <mxGeometry x="384" y="20" width="30" height="30" as="geometry" />
        </mxCell>
        <mxCell id="Kdeygh5ItrPJ2xVoY4D2-25" value="" style="endArrow=none;html=1;rounded=0;entryX=0.5;entryY=1;entryDx=0;entryDy=0;" edge="1" parent="1" target="Kdeygh5ItrPJ2xVoY4D2-24">
          <mxGeometry width="50" height="50" relative="1" as="geometry">
            <mxPoint x="399" y="100" as="sourcePoint" />
            <mxPoint x="424" y="140" as="targetPoint" />
          </mxGeometry>
        </mxCell>
        <mxCell id="Kdeygh5ItrPJ2xVoY4D2-26" value="選擇有興趣的主題" style="rounded=1;whiteSpace=wrap;html=1;" vertex="1" parent="1">
          <mxGeometry x="339" y="100" width="120" height="60" as="geometry" />
        </mxCell>
        <mxCell id="Kdeygh5ItrPJ2xVoY4D2-27" value="" style="endArrow=classic;html=1;rounded=0;" edge="1" parent="1">
          <mxGeometry width="50" height="50" relative="1" as="geometry">
            <mxPoint x="399.12" y="160" as="sourcePoint" />
            <mxPoint x="398.62" y="210" as="targetPoint" />
          </mxGeometry>
        </mxCell>
        <mxCell id="Kdeygh5ItrPJ2xVoY4D2-28" value="主頁顯示有興趣的電影" style="rounded=1;whiteSpace=wrap;html=1;" vertex="1" parent="1">
          <mxGeometry x="333.5" y="320" width="131" height="60" as="geometry" />
        </mxCell>
        <mxCell id="Kdeygh5ItrPJ2xVoY4D2-29" value="" style="endArrow=classic;html=1;rounded=0;" edge="1" parent="1">
          <mxGeometry width="50" height="50" relative="1" as="geometry">
            <mxPoint x="399.37" y="380" as="sourcePoint" />
            <mxPoint x="398.87" y="430" as="targetPoint" />
          </mxGeometry>
        </mxCell>
        <mxCell id="Kdeygh5ItrPJ2xVoY4D2-30" value="" style="ellipse;html=1;shape=endState;fillColor=strokeColor;" vertex="1" parent="1">
          <mxGeometry x="384" y="430" width="30" height="30" as="geometry" />
        </mxCell>
        <mxCell id="Kdeygh5ItrPJ2xVoY4D2-31" value="" style="ellipse;fillColor=strokeColor;html=1;" vertex="1" parent="1">
          <mxGeometry x="650" y="20" width="30" height="30" as="geometry" />
        </mxCell>
        <mxCell id="Kdeygh5ItrPJ2xVoY4D2-32" value="" style="endArrow=none;html=1;rounded=0;entryX=0.5;entryY=1;entryDx=0;entryDy=0;" edge="1" parent="1" target="Kdeygh5ItrPJ2xVoY4D2-31">
          <mxGeometry width="50" height="50" relative="1" as="geometry">
            <mxPoint x="665" y="100" as="sourcePoint" />
            <mxPoint x="690" y="140" as="targetPoint" />
          </mxGeometry>
        </mxCell>
        <mxCell id="Kdeygh5ItrPJ2xVoY4D2-36" value="" style="edgeStyle=orthogonalEdgeStyle;rounded=0;orthogonalLoop=1;jettySize=auto;html=1;" edge="1" parent="1" source="Kdeygh5ItrPJ2xVoY4D2-33" target="Kdeygh5ItrPJ2xVoY4D2-35">
          <mxGeometry relative="1" as="geometry" />
        </mxCell>
        <mxCell id="Kdeygh5ItrPJ2xVoY4D2-33" value="選擇影片" style="rounded=1;whiteSpace=wrap;html=1;" vertex="1" parent="1">
          <mxGeometry x="605" y="100" width="120" height="60" as="geometry" />
        </mxCell>
        <mxCell id="Kdeygh5ItrPJ2xVoY4D2-34" value="" style="endArrow=classic;html=1;rounded=0;" edge="1" parent="1">
          <mxGeometry width="50" height="50" relative="1" as="geometry">
            <mxPoint x="665.12" y="160" as="sourcePoint" />
            <mxPoint x="664.62" y="210" as="targetPoint" />
          </mxGeometry>
        </mxCell>
        <mxCell id="Kdeygh5ItrPJ2xVoY4D2-35" value="輸入評論內容及&lt;br&gt;推薦星等" style="rounded=1;whiteSpace=wrap;html=1;" vertex="1" parent="1">
          <mxGeometry x="605" y="210" width="120" height="60" as="geometry" />
        </mxCell>
        <mxCell id="Kdeygh5ItrPJ2xVoY4D2-37" value="" style="endArrow=classic;html=1;rounded=0;" edge="1" parent="1">
          <mxGeometry width="50" height="50" relative="1" as="geometry">
            <mxPoint x="665.12" y="270" as="sourcePoint" />
            <mxPoint x="664.62" y="320" as="targetPoint" />
          </mxGeometry>
        </mxCell>
        <mxCell id="Kdeygh5ItrPJ2xVoY4D2-38" value="點選送出" style="rounded=1;whiteSpace=wrap;html=1;" vertex="1" parent="1">
          <mxGeometry x="605" y="320" width="120" height="60" as="geometry" />
        </mxCell>
        <mxCell id="Kdeygh5ItrPJ2xVoY4D2-39" value="點選送出" style="rounded=1;whiteSpace=wrap;html=1;" vertex="1" parent="1">
          <mxGeometry x="339" y="210" width="120" height="60" as="geometry" />
        </mxCell>
        <mxCell id="Kdeygh5ItrPJ2xVoY4D2-40" value="" style="endArrow=classic;html=1;rounded=0;" edge="1" parent="1">
          <mxGeometry width="50" height="50" relative="1" as="geometry">
            <mxPoint x="399.12" y="270" as="sourcePoint" />
            <mxPoint x="398.62" y="320" as="targetPoint" />
          </mxGeometry>
        </mxCell>
        <mxCell id="Kdeygh5ItrPJ2xVoY4D2-41" value="提示送出成功" style="rounded=1;whiteSpace=wrap;html=1;" vertex="1" parent="1">
          <mxGeometry x="605" y="580" width="120" height="60" as="geometry" />
        </mxCell>
        <mxCell id="Kdeygh5ItrPJ2xVoY4D2-42" value="" style="endArrow=classic;html=1;rounded=0;" edge="1" parent="1">
          <mxGeometry width="50" height="50" relative="1" as="geometry">
            <mxPoint x="665.12" y="380" as="sourcePoint" />
            <mxPoint x="664.62" y="430" as="targetPoint" />
          </mxGeometry>
        </mxCell>
        <mxCell id="Kdeygh5ItrPJ2xVoY4D2-43" value="" style="endArrow=classic;html=1;rounded=0;" edge="1" parent="1">
          <mxGeometry width="50" height="50" relative="1" as="geometry">
            <mxPoint x="665.37" y="640" as="sourcePoint" />
            <mxPoint x="664.87" y="690" as="targetPoint" />
          </mxGeometry>
        </mxCell>
        <mxCell id="Kdeygh5ItrPJ2xVoY4D2-44" value="" style="ellipse;html=1;shape=endState;fillColor=strokeColor;" vertex="1" parent="1">
          <mxGeometry x="650" y="690" width="30" height="30" as="geometry" />
        </mxCell>
        <mxCell id="Kdeygh5ItrPJ2xVoY4D2-45" value="是否送出成功" style="rhombus;whiteSpace=wrap;html=1;" vertex="1" parent="1">
          <mxGeometry x="603.75" y="430" width="122.5" height="50" as="geometry" />
        </mxCell>
        <mxCell id="Kdeygh5ItrPJ2xVoY4D2-46" value="" style="endArrow=classic;html=1;rounded=0;exitX=0.5;exitY=1;exitDx=0;exitDy=0;" edge="1" parent="1" source="Kdeygh5ItrPJ2xVoY4D2-11">
          <mxGeometry width="50" height="50" relative="1" as="geometry">
            <mxPoint x="133.12" y="400" as="sourcePoint" />
            <mxPoint x="132.75" y="430" as="targetPoint" />
          </mxGeometry>
        </mxCell>
        <mxCell id="Kdeygh5ItrPJ2xVoY4D2-47" value="&lt;span style=&quot;color: rgb(0, 0, 0); font-family: Helvetica; font-size: 12px; font-style: normal; font-variant-ligatures: normal; font-variant-caps: normal; font-weight: 400; letter-spacing: normal; orphans: 2; text-indent: 0px; text-transform: none; widows: 2; word-spacing: 0px; -webkit-text-stroke-width: 0px; background-color: rgb(251, 251, 251); text-decoration-thickness: initial; text-decoration-style: initial; text-decoration-color: initial; float: none; display: inline !important;&quot;&gt;是&lt;/span&gt;" style="text;whiteSpace=wrap;html=1;align=center;" vertex="1" parent="1">
          <mxGeometry x="637.75" y="520" width="54.5" height="30" as="geometry" />
        </mxCell>
        <mxCell id="Kdeygh5ItrPJ2xVoY4D2-48" value="" style="endArrow=none;html=1;rounded=0;entryX=0.5;entryY=1;entryDx=0;entryDy=0;exitX=0.5;exitY=0;exitDx=0;exitDy=0;" edge="1" parent="1" source="Kdeygh5ItrPJ2xVoY4D2-47">
          <mxGeometry width="50" height="50" relative="1" as="geometry">
            <mxPoint x="664.75" y="510" as="sourcePoint" />
            <mxPoint x="664.62" y="480" as="targetPoint" />
          </mxGeometry>
        </mxCell>
        <mxCell id="Kdeygh5ItrPJ2xVoY4D2-49" value="" style="endArrow=classic;html=1;rounded=0;" edge="1" parent="1">
          <mxGeometry width="50" height="50" relative="1" as="geometry">
            <mxPoint x="665.12" y="550" as="sourcePoint" />
            <mxPoint x="664.75" y="580" as="targetPoint" />
          </mxGeometry>
        </mxCell>
        <mxCell id="Kdeygh5ItrPJ2xVoY4D2-50" value="&lt;span style=&quot;color: rgb(0, 0, 0); font-family: Helvetica; font-size: 12px; font-style: normal; font-variant-ligatures: normal; font-variant-caps: normal; font-weight: 400; letter-spacing: normal; orphans: 2; text-indent: 0px; text-transform: none; widows: 2; word-spacing: 0px; -webkit-text-stroke-width: 0px; background-color: rgb(251, 251, 251); text-decoration-thickness: initial; text-decoration-style: initial; text-decoration-color: initial; float: none; display: inline !important;&quot;&gt;否&lt;/span&gt;" style="text;whiteSpace=wrap;html=1;align=center;" vertex="1" parent="1">
          <mxGeometry x="740" y="440" width="54.5" height="30" as="geometry" />
        </mxCell>
        <mxCell id="Kdeygh5ItrPJ2xVoY4D2-54" value="" style="endArrow=none;html=1;rounded=0;" edge="1" parent="1">
          <mxGeometry width="50" height="50" relative="1" as="geometry">
            <mxPoint x="760" y="455" as="sourcePoint" />
            <mxPoint x="726.25" y="454.62" as="targetPoint" />
          </mxGeometry>
        </mxCell>
        <mxCell id="Kdeygh5ItrPJ2xVoY4D2-56" value="" style="endArrow=classic;html=1;rounded=0;" edge="1" parent="1">
          <mxGeometry width="50" height="50" relative="1" as="geometry">
            <mxPoint x="777" y="454.62" as="sourcePoint" />
            <mxPoint x="800" y="455" as="targetPoint" />
          </mxGeometry>
        </mxCell>
        <mxCell id="Kdeygh5ItrPJ2xVoY4D2-58" value="提示送出失敗" style="rounded=1;whiteSpace=wrap;html=1;" vertex="1" parent="1">
          <mxGeometry x="800" y="425" width="120" height="60" as="geometry" />
        </mxCell>
        <mxCell id="Kdeygh5ItrPJ2xVoY4D2-59" value="" style="endArrow=none;html=1;rounded=0;" edge="1" parent="1">
          <mxGeometry width="50" height="50" relative="1" as="geometry">
            <mxPoint x="965" y="312" as="sourcePoint" />
            <mxPoint x="965" y="242" as="targetPoint" />
          </mxGeometry>
        </mxCell>
        <mxCell id="Kdeygh5ItrPJ2xVoY4D2-60" value="" style="endArrow=classic;html=1;rounded=0;" edge="1" parent="1" target="Kdeygh5ItrPJ2xVoY4D2-35">
          <mxGeometry width="50" height="50" relative="1" as="geometry">
            <mxPoint x="965" y="242" as="sourcePoint" />
            <mxPoint x="920" y="242" as="targetPoint" />
          </mxGeometry>
        </mxCell>
        <mxCell id="Kdeygh5ItrPJ2xVoY4D2-61" value="&lt;span style=&quot;color: rgb(0, 0, 0); font-family: Helvetica; font-size: 12px; font-style: normal; font-variant-ligatures: normal; font-variant-caps: normal; font-weight: 400; letter-spacing: normal; orphans: 2; text-align: center; text-indent: 0px; text-transform: none; widows: 2; word-spacing: 0px; -webkit-text-stroke-width: 0px; background-color: rgb(251, 251, 251); text-decoration-thickness: initial; text-decoration-style: initial; text-decoration-color: initial; float: none; display: inline !important;&quot;&gt;重新輸入&lt;/span&gt;" style="text;whiteSpace=wrap;html=1;" vertex="1" parent="1">
          <mxGeometry x="935" y="312" width="60" height="30" as="geometry" />
        </mxCell>
        <mxCell id="Kdeygh5ItrPJ2xVoY4D2-62" value="" style="endArrow=none;html=1;rounded=0;entryX=0.5;entryY=1;entryDx=0;entryDy=0;" edge="1" parent="1">
          <mxGeometry width="50" height="50" relative="1" as="geometry">
            <mxPoint x="965" y="458" as="sourcePoint" />
            <mxPoint x="965" y="338" as="targetPoint" />
          </mxGeometry>
        </mxCell>
        <mxCell id="Kdeygh5ItrPJ2xVoY4D2-63" value="" style="endArrow=none;html=1;rounded=0;" edge="1" parent="1">
          <mxGeometry width="50" height="50" relative="1" as="geometry">
            <mxPoint x="921" y="457" as="sourcePoint" />
            <mxPoint x="965" y="457" as="targetPoint" />
          </mxGeometry>
        </mxCell>
      </root>
    </mxGraphModel>
  </diagram>
</mxfile>
